{"title":"colt.45.2014.french.720p.brrip.x264.n3kr4","uid":11973066,"size":790769659,"categoryP":"video","categoryS":"movies","magnet":"?xt=urn:btih:02826353a5f941e377b4d13f9513bf0fccaaeea4&amp;dn=colt.45.2014.french.720p.brrip.x264.n3kr4&amp;tr=udp%3A%2F%2Ftracker.openbittorrent.com%3A80&amp;tr=udp%3A%2F%2Fopen.demonii.com%3A1337&amp;tr=udp%3A%2F%2Ftracker.coppersurfer.tk%3A6969&amp;tr=udp%3A%2F%2Fexodus.desync.com%3A6969","seeders":17,"leechers":1,"uploader":"Falcon.G13","files":1,"time":1432909765,"description":" &lt;a href=&quot;http://i.imgur.com/M8O75x8.jpg&quot; rel=&quot;nofollow&quot; target=&quot;_NEW&quot;&gt;http://i.imgur.com/M8O75x8.jpg&lt;/a&gt;\n\nColt 45 (2014)\n85 min - Action | Crime | Drama - 6 August 2014 (France)\n5.7 Your rating: -/10 Ratings: 5.7/10 from 213 users \nReviews: 3 user | 6 critic\n &lt;a href=&quot;\nhttp://i.imgur.com/GeulIwO.jpg&quot; rel=&quot;nofollow&quot; target=&quot;_NEW&quot;&gt;\nhttp://i.imgur.com/GeulIwO.jpg&lt;/a&gt; &lt;a href=&quot;\nhttp://i.imgur.com/w1QvlJ4.jpg&quot; rel=&quot;nofollow&quot; target=&quot;_NEW&quot;&gt;\nhttp://i.imgur.com/w1QvlJ4.jpg&lt;/a&gt; &lt;a href=&quot;\nhttp://i.imgur.com/S3JdnBy.jpg&quot; rel=&quot;nofollow&quot; target=&quot;_NEW&quot;&gt;\nhttp://i.imgur.com/S3JdnBy.jpg&lt;/a&gt; &lt;a href=&quot;\nhttp://i.imgur.com/CFYyZI5.jpg&quot; rel=&quot;nofollow&quot; target=&quot;_NEW&quot;&gt;\nhttp://i.imgur.com/CFYyZI5.jpg&lt;/a&gt; &lt;a href=&quot;\nhttp://i.imgur.com/NtK69dm.jpg&quot; rel=&quot;nofollow&quot; target=&quot;_NEW&quot;&gt;\nhttp://i.imgur.com/NtK69dm.jpg&lt;/a&gt; &lt;a href=&quot;\nhttp://i.imgur.com/kdBuhei.jpg&quot; rel=&quot;nofollow&quot; target=&quot;_NEW&quot;&gt;\nhttp://i.imgur.com/kdBuhei.jpg&lt;/a&gt; &lt;a href=&quot;\nhttp://i.imgur.com/VTqv2RA.jpg&quot; rel=&quot;nofollow&quot; target=&quot;_NEW&quot;&gt;\nhttp://i.imgur.com/VTqv2RA.jpg&lt;/a&gt;\n\nGeneral\nComplete name : Colt.45 (2014) FRENCH 720p BrRip x264 - N3kr4.mp4\nFormat : MPEG-4\nFormat profile : Base Media\nCodec ID : isom\nFile size : 754 MiB\nDuration : 1h 23mn\nOverall bit rate : 1 257 Kbps\nWriting application : Lavf55.7.100\n\nVideo\nID : 1\nFormat : AVC\nFormat/Info : Advanced Video Codec\nFormat profile : &lt;a class=&quot;__cf_email__&quot; href=&quot;/cdn-cgi/l/email-protection&quot; data-cfemail=&quot;d39eb2babd939fe7fde3&quot;&gt;[email&amp;#160;protected]&lt;/a&gt;&lt;script data-cfhash='f9e31' type=&quot;text/javascript&quot;&gt;\n/* &lt;![CDATA[ */!function(){try{var t=&quot;currentScript&quot;in document?document.currentScript:function(){for(var t=document.getElementsByTagName(&quot;script&quot;),e=t.length;e--;)if(t[e].getAttribute(&quot;data-cfhash&quot;))return t[e]}();if(t&amp;&amp;t.previousSibling){var e,r,n,i,c=t.previousSibling,a=c.getAttribute(&quot;data-cfemail&quot;);if(a){for(e=&quot;&quot;,r=parseInt(a.substr(0,2),16),n=2;a.length-n;n+=2)i=parseInt(a.substr(n,2),16)^r,e+=String.fromCharCode(i);e=document.createTextNode(e),c.parentNode.replaceChild(e,c)}t.parentNode.removeChild(t);}}catch(u){}}()/* ]]&gt; */&lt;/script&gt;\nFormat settings, CABAC : Yes\nFormat settings, ReFrames : 3 frames\nCodec ID : avc1\nCodec ID/Info : Advanced Video Coding\nDuration : 1h 23mn\nBit rate : 994 Kbps\nWidth : 1 280 pixels\nHeight : 536 pixels\nDisplay aspect ratio : 2.40:1\nFrame rate mode : Constant\nFrame rate : 23.976 fps\nColor space : YUV\nChroma subsampling : 4:2:0\nBit depth : 8 bits\nScan type : Progressive\nBits/(Pixel*Frame) : 0.060\nStream size : 596 MiB (79%)\nLanguage : English\n\nAudio\nID : 2\nFormat : AAC\nFormat/Info : Advanced Audio Codec\nFormat profile : LC\nCodec ID : 40\nDuration : 1h 23mn\nBit rate mode : Constant\nBit rate : 256 Kbps\nChannel(s) : 2 channels\nChannel positions : Front: L R\nSampling rate : 96.0 KHz\nCompression mode : Lossy\nStream size : 154 MiB (20%)\nLanguage : French","torrent":{"xt":"urn:btih:02826353a5f941e377b4d13f9513bf0fccaaeea4","amp;dn":"colt.45.2014.french.720p.brrip.x264.n3kr4","amp;tr":["udp%3A%2F%2Ftracker.openbittorrent.com%3A80","udp%3A%2F%2Fopen.demonii.com%3A1337","udp%3A%2F%2Ftracker.coppersurfer.tk%3A6969","udp%3A%2F%2Fexodus.desync.com%3A6969"],"infoHash":"02826353a5f941e377b4d13f9513bf0fccaaeea4","infoHashBuffer":{"type":"Buffer","data":[2,130,99,83,165,249,65,227,119,180,209,63,149,19,191,15,204,170,238,164]},"announce":[],"urlList":[]}}